<mxfile host="app.diagrams.net" agent="Mozilla/5.0 (Macintosh; Intel Mac OS X 10_15_7) AppleWebKit/537.36 (KHTML, like Gecko) Chrome/137.0.0.0 Safari/537.36" version="28.0.5">
  <diagram name="Page-1" id="6k2zMYyjilEWwxgVp3P2">
    <mxGraphModel dx="1362" dy="778" grid="1" gridSize="10" guides="1" tooltips="1" connect="1" arrows="1" fold="1" page="0" pageScale="1" pageWidth="860" pageHeight="800" math="0" shadow="0">
      <root>
        <mxCell id="0" />
        <mxCell id="1" parent="0" />
        <mxCell id="2T1Zwf7EH5pKQzEgwhFY-28" value="" style="rounded=1;whiteSpace=wrap;html=1;fillColor=none;strokeColor=light-dark(#a9c4eb, #babdc0);arcSize=6;" parent="1" vertex="1">
          <mxGeometry x="880" y="80" width="170" height="190" as="geometry" />
        </mxCell>
        <mxCell id="TgQTEoghcz0UxrAVnRUr-7" value="" style="rounded=1;whiteSpace=wrap;html=1;fillColor=none;strokeColor=#A9C4EB;arcSize=3;perimeterSpacing=0;" parent="1" vertex="1">
          <mxGeometry x="10" y="10" width="840" height="360" as="geometry" />
        </mxCell>
        <mxCell id="TgQTEoghcz0UxrAVnRUr-15" value="" style="rounded=1;whiteSpace=wrap;html=1;fillColor=none;strokeColor=#A9C4EB;arcSize=6;" parent="1" vertex="1">
          <mxGeometry x="350" y="150" width="160" height="190" as="geometry" />
        </mxCell>
        <mxCell id="TgQTEoghcz0UxrAVnRUr-16" value="" style="rounded=1;whiteSpace=wrap;html=1;fillColor=none;strokeColor=#A9C4EB;arcSize=3;" parent="1" vertex="1">
          <mxGeometry x="520" y="40" width="320" height="300" as="geometry" />
        </mxCell>
        <mxCell id="TgQTEoghcz0UxrAVnRUr-14" value="" style="rounded=1;whiteSpace=wrap;html=1;fillColor=none;strokeColor=#A9C4EB;arcSize=3;" parent="1" vertex="1">
          <mxGeometry x="20" y="50" width="320" height="290" as="geometry" />
        </mxCell>
        <mxCell id="TgQTEoghcz0UxrAVnRUr-10" value="" style="rounded=1;whiteSpace=wrap;html=1;fillColor=none;strokeColor=#A9C4EB;arcSize=3;" parent="1" vertex="1">
          <mxGeometry x="10" y="650" width="840" height="130" as="geometry" />
        </mxCell>
        <mxCell id="TgQTEoghcz0UxrAVnRUr-8" value="" style="rounded=1;whiteSpace=wrap;html=1;arcSize=3;strokeWidth=4;fillColor=none;strokeColor=#6c8ebf;" parent="1" vertex="1">
          <mxGeometry x="10" y="380" width="840" height="260" as="geometry" />
        </mxCell>
        <mxCell id="TgQTEoghcz0UxrAVnRUr-1" style="edgeStyle=orthogonalEdgeStyle;rounded=0;orthogonalLoop=1;jettySize=auto;html=1;strokeWidth=2;entryX=0.5;entryY=0;entryDx=0;entryDy=0;" parent="1" source="lGFxbz3i8dvHrvGvqf7d-3" target="lGFxbz3i8dvHrvGvqf7d-7" edge="1">
          <mxGeometry relative="1" as="geometry">
            <Array as="points">
              <mxPoint x="180" y="360" />
              <mxPoint x="430" y="360" />
            </Array>
          </mxGeometry>
        </mxCell>
        <UserObject label="Searchspace" link="https://emdgroup.github.io/baybe/stable/userguide/searchspace.html" linkTarget="_blank" id="lGFxbz3i8dvHrvGvqf7d-3">
          <mxCell style="swimlane;fontStyle=0;childLayout=stackLayout;horizontal=1;startSize=30;horizontalStack=0;resizeParent=1;resizeParentMax=0;resizeLast=0;collapsible=1;marginBottom=0;whiteSpace=wrap;html=1;fillColor=#b1ddf0;strokeColor=#10739e;" parent="1" vertex="1">
            <mxGeometry x="110" y="230" width="140" height="100" as="geometry" />
          </mxCell>
        </UserObject>
        <mxCell id="lGFxbz3i8dvHrvGvqf7d-4" value="Allowed parameter configurations that can be suggested by the model" style="text;strokeColor=none;fillColor=default;align=center;verticalAlign=middle;spacingLeft=4;spacingRight=4;overflow=hidden;points=[[0,0.5],[1,0.5]];portConstraint=eastwest;rotatable=0;whiteSpace=wrap;html=1;" parent="lGFxbz3i8dvHrvGvqf7d-3" vertex="1">
          <mxGeometry y="30" width="140" height="70" as="geometry" />
        </mxCell>
        <mxCell id="TgQTEoghcz0UxrAVnRUr-6" style="edgeStyle=orthogonalEdgeStyle;rounded=0;orthogonalLoop=1;jettySize=auto;html=1;strokeWidth=2;" parent="1" source="lGFxbz3i8dvHrvGvqf7d-7" target="lGFxbz3i8dvHrvGvqf7d-23" edge="1">
          <mxGeometry relative="1" as="geometry">
            <Array as="points">
              <mxPoint x="520" y="480" />
              <mxPoint x="520" y="480" />
            </Array>
          </mxGeometry>
        </mxCell>
        <mxCell id="TgQTEoghcz0UxrAVnRUr-9" style="edgeStyle=orthogonalEdgeStyle;rounded=0;orthogonalLoop=1;jettySize=auto;html=1;exitX=0.5;exitY=1;exitDx=0;exitDy=0;strokeWidth=2;entryX=0.5;entryY=0;entryDx=0;entryDy=0;" parent="1" source="TgQTEoghcz0UxrAVnRUr-8" target="lGFxbz3i8dvHrvGvqf7d-39" edge="1">
          <mxGeometry relative="1" as="geometry">
            <Array as="points">
              <mxPoint x="430" y="660" />
              <mxPoint x="430" y="660" />
            </Array>
          </mxGeometry>
        </mxCell>
        <UserObject label="&lt;b&gt;Campaign&lt;/b&gt;" link="https://emdgroup.github.io/baybe/stable/userguide/campaigns.html" linkTarget="_blank" id="lGFxbz3i8dvHrvGvqf7d-7">
          <mxCell style="swimlane;fontStyle=0;childLayout=stackLayout;horizontal=1;startSize=30;horizontalStack=0;resizeParent=1;resizeParentMax=0;resizeLast=0;collapsible=1;marginBottom=0;whiteSpace=wrap;html=1;fillColor=#1ba1e2;strokeColor=#006EAF;fontColor=#ffffff;" parent="1" vertex="1">
            <mxGeometry x="360" y="435" width="140" height="70" as="geometry" />
          </mxCell>
        </UserObject>
        <mxCell id="lGFxbz3i8dvHrvGvqf7d-8" value="Complete state of the project" style="text;strokeColor=none;fillColor=default;align=center;verticalAlign=middle;spacingLeft=4;spacingRight=4;overflow=hidden;points=[[0,0.5],[1,0.5]];portConstraint=eastwest;rotatable=0;whiteSpace=wrap;html=1;" parent="lGFxbz3i8dvHrvGvqf7d-7" vertex="1">
          <mxGeometry y="30" width="140" height="40" as="geometry" />
        </mxCell>
        <mxCell id="lGFxbz3i8dvHrvGvqf7d-15" style="edgeStyle=orthogonalEdgeStyle;rounded=0;orthogonalLoop=1;jettySize=auto;html=1;strokeWidth=2;entryX=0.5;entryY=0;entryDx=0;entryDy=0;" parent="1" source="lGFxbz3i8dvHrvGvqf7d-10" target="lGFxbz3i8dvHrvGvqf7d-7" edge="1">
          <mxGeometry relative="1" as="geometry">
            <Array as="points">
              <mxPoint x="430" y="400" />
              <mxPoint x="430" y="400" />
            </Array>
            <mxPoint x="360" y="435" as="targetPoint" />
          </mxGeometry>
        </mxCell>
        <UserObject label="Objective" link="https://emdgroup.github.io/baybe/stable/userguide/objectives.html" linkTarget="_blank" id="lGFxbz3i8dvHrvGvqf7d-10">
          <mxCell style="swimlane;fontStyle=0;childLayout=stackLayout;horizontal=1;startSize=30;horizontalStack=0;resizeParent=1;resizeParentMax=0;resizeLast=0;collapsible=1;marginBottom=0;whiteSpace=wrap;html=1;fillColor=#b1ddf0;strokeColor=#10739e;" parent="1" vertex="1">
            <mxGeometry x="360" y="260" width="140" height="70" as="geometry" />
          </mxCell>
        </UserObject>
        <mxCell id="lGFxbz3i8dvHrvGvqf7d-11" value="How to combine multiple targets" style="text;strokeColor=none;fillColor=default;align=center;verticalAlign=middle;spacingLeft=4;spacingRight=4;overflow=hidden;points=[[0,0.5],[1,0.5]];portConstraint=eastwest;rotatable=0;whiteSpace=wrap;html=1;" parent="lGFxbz3i8dvHrvGvqf7d-10" vertex="1">
          <mxGeometry y="30" width="140" height="40" as="geometry" />
        </mxCell>
        <mxCell id="TgQTEoghcz0UxrAVnRUr-3" style="edgeStyle=orthogonalEdgeStyle;rounded=0;orthogonalLoop=1;jettySize=auto;html=1;entryX=0.5;entryY=0;entryDx=0;entryDy=0;strokeWidth=2;exitX=0.492;exitY=1.008;exitDx=0;exitDy=0;exitPerimeter=0;" parent="1" source="lGFxbz3i8dvHrvGvqf7d-13" target="lGFxbz3i8dvHrvGvqf7d-7" edge="1">
          <mxGeometry relative="1" as="geometry">
            <Array as="points">
              <mxPoint x="679" y="360" />
              <mxPoint x="430" y="360" />
            </Array>
            <mxPoint x="740" y="325.0000000000001" as="sourcePoint" />
          </mxGeometry>
        </mxCell>
        <UserObject label="Recommender" link="https://emdgroup.github.io/baybe/stable/userguide/recommenders.html" linkTarget="_blank" id="lGFxbz3i8dvHrvGvqf7d-12">
          <mxCell style="swimlane;fontStyle=0;childLayout=stackLayout;horizontal=1;startSize=30;horizontalStack=0;resizeParent=1;resizeParentMax=0;resizeLast=0;collapsible=1;marginBottom=0;whiteSpace=wrap;html=1;fillColor=#f5f5f5;strokeColor=#666666;fontColor=#333333;" parent="1" vertex="1">
            <mxGeometry x="610" y="195" width="140" height="107" as="geometry" />
          </mxCell>
        </UserObject>
        <mxCell id="lGFxbz3i8dvHrvGvqf7d-13" value="Mechanism for suggesting next experiments" style="text;strokeColor=none;fillColor=default;align=center;verticalAlign=middle;spacingLeft=4;spacingRight=4;overflow=hidden;points=[[0,0.5],[1,0.5]];portConstraint=eastwest;rotatable=0;whiteSpace=wrap;html=1;" parent="lGFxbz3i8dvHrvGvqf7d-12" vertex="1">
          <mxGeometry y="30" width="140" height="77" as="geometry" />
        </mxCell>
        <UserObject label="Measurements" link="https://emdgroup.github.io/baybe/stable/userguide/campaigns.html#adding-measurements" linkTarget="_blank" id="lGFxbz3i8dvHrvGvqf7d-17">
          <mxCell style="swimlane;fontStyle=0;childLayout=stackLayout;horizontal=1;startSize=30;horizontalStack=0;resizeParent=1;resizeParentMax=0;resizeLast=0;collapsible=1;marginBottom=0;whiteSpace=wrap;html=1;fillColor=#fff2cc;strokeColor=#d6b656;" parent="1" vertex="1">
            <mxGeometry x="180" y="435" width="140" height="80" as="geometry" />
          </mxCell>
        </UserObject>
        <mxCell id="lGFxbz3i8dvHrvGvqf7d-18" value="Pairs of recommendations and outcomes" style="text;strokeColor=none;fillColor=default;align=center;verticalAlign=middle;spacingLeft=4;spacingRight=4;overflow=hidden;points=[[0,0.5],[1,0.5]];portConstraint=eastwest;rotatable=0;whiteSpace=wrap;html=1;" parent="lGFxbz3i8dvHrvGvqf7d-17" vertex="1">
          <mxGeometry y="30" width="140" height="50" as="geometry" />
        </mxCell>
        <mxCell id="lGFxbz3i8dvHrvGvqf7d-20" style="edgeStyle=orthogonalEdgeStyle;rounded=0;orthogonalLoop=1;jettySize=auto;html=1;strokeWidth=2;" parent="1" source="lGFxbz3i8dvHrvGvqf7d-18" target="lGFxbz3i8dvHrvGvqf7d-7" edge="1">
          <mxGeometry relative="1" as="geometry">
            <Array as="points">
              <mxPoint x="340" y="480" />
              <mxPoint x="340" y="480" />
            </Array>
          </mxGeometry>
        </mxCell>
        <mxCell id="TgQTEoghcz0UxrAVnRUr-4" style="edgeStyle=orthogonalEdgeStyle;rounded=0;orthogonalLoop=1;jettySize=auto;html=1;entryX=1.007;entryY=0.149;entryDx=0;entryDy=0;strokeWidth=2;entryPerimeter=0;" parent="1" source="lGFxbz3i8dvHrvGvqf7d-23" target="lGFxbz3i8dvHrvGvqf7d-30" edge="1">
          <mxGeometry relative="1" as="geometry" />
        </mxCell>
        <UserObject label="Recommendations" link="https://emdgroup.github.io/baybe/stable/userguide/getting_recommendations.html" linkTarget="_blank" id="lGFxbz3i8dvHrvGvqf7d-23">
          <mxCell style="swimlane;fontStyle=0;childLayout=stackLayout;horizontal=1;startSize=30;horizontalStack=0;resizeParent=1;resizeParentMax=0;resizeLast=0;collapsible=1;marginBottom=0;whiteSpace=wrap;html=1;fillColor=#fff2cc;strokeColor=#d6b656;" parent="1" vertex="1">
            <mxGeometry x="540" y="435" width="140" height="80" as="geometry" />
          </mxCell>
        </UserObject>
        <mxCell id="lGFxbz3i8dvHrvGvqf7d-24" value="Experiments to be conducted next" style="text;align=center;verticalAlign=middle;spacingLeft=4;spacingRight=4;overflow=hidden;points=[[0,0.5],[1,0.5]];portConstraint=eastwest;rotatable=0;whiteSpace=wrap;html=1;fillColor=default;" parent="lGFxbz3i8dvHrvGvqf7d-23" vertex="1">
          <mxGeometry y="30" width="140" height="50" as="geometry" />
        </mxCell>
        <mxCell id="TgQTEoghcz0UxrAVnRUr-5" style="edgeStyle=orthogonalEdgeStyle;rounded=0;orthogonalLoop=1;jettySize=auto;html=1;strokeWidth=2;" parent="1" source="lGFxbz3i8dvHrvGvqf7d-29" target="lGFxbz3i8dvHrvGvqf7d-17" edge="1">
          <mxGeometry relative="1" as="geometry" />
        </mxCell>
        <mxCell id="lGFxbz3i8dvHrvGvqf7d-29" value="Lab Outcomes / Oracle" style="swimlane;fontStyle=0;childLayout=stackLayout;horizontal=1;startSize=30;horizontalStack=0;resizeParent=1;resizeParentMax=0;resizeLast=0;collapsible=1;marginBottom=0;whiteSpace=wrap;html=1;fillColor=#fff2cc;strokeColor=#d6b656;" parent="1" vertex="1">
          <mxGeometry x="350" y="545" width="160" height="80" as="geometry" />
        </mxCell>
        <mxCell id="lGFxbz3i8dvHrvGvqf7d-30" value="Obtain / measure outcomes for recommendations" style="text;strokeColor=none;fillColor=default;align=center;verticalAlign=middle;spacingLeft=4;spacingRight=4;overflow=hidden;points=[[0,0.5],[1,0.5]];portConstraint=eastwest;rotatable=0;whiteSpace=wrap;html=1;" parent="lGFxbz3i8dvHrvGvqf7d-29" vertex="1">
          <mxGeometry y="30" width="160" height="50" as="geometry" />
        </mxCell>
        <mxCell id="TgQTEoghcz0UxrAVnRUr-17" style="edgeStyle=orthogonalEdgeStyle;rounded=0;orthogonalLoop=1;jettySize=auto;html=1;entryX=0.5;entryY=0;entryDx=0;entryDy=0;strokeWidth=2;exitX=0.496;exitY=1.012;exitDx=0;exitDy=0;exitPerimeter=0;" parent="1" source="lGFxbz3i8dvHrvGvqf7d-34" target="lGFxbz3i8dvHrvGvqf7d-3" edge="1">
          <mxGeometry relative="1" as="geometry">
            <Array as="points">
              <mxPoint x="99" y="210" />
              <mxPoint x="180" y="210" />
            </Array>
          </mxGeometry>
        </mxCell>
        <UserObject label="Parameter" link="https://emdgroup.github.io/baybe/stable/userguide/parameters.html" linkTarget="_blank" id="lGFxbz3i8dvHrvGvqf7d-33">
          <mxCell style="swimlane;fontStyle=0;childLayout=stackLayout;horizontal=1;startSize=30;horizontalStack=0;resizeParent=1;resizeParentMax=0;resizeLast=0;collapsible=1;marginBottom=0;whiteSpace=wrap;html=1;fillColor=#b1ddf0;strokeColor=#10739e;gradientDirection=radial;" parent="1" vertex="1">
            <mxGeometry x="30" y="60" width="140" height="101" as="geometry" />
          </mxCell>
        </UserObject>
        <mxCell id="lGFxbz3i8dvHrvGvqf7d-34" value="Individual degrees of freedom to control during an experiment" style="text;strokeColor=none;fillColor=default;align=center;verticalAlign=middle;spacingLeft=4;spacingRight=4;overflow=hidden;points=[[0,0.5],[1,0.5]];portConstraint=eastwest;rotatable=0;whiteSpace=wrap;html=1;" parent="lGFxbz3i8dvHrvGvqf7d-33" vertex="1">
          <mxGeometry y="30" width="140" height="71" as="geometry" />
        </mxCell>
        <mxCell id="2T1Zwf7EH5pKQzEgwhFY-15" style="edgeStyle=orthogonalEdgeStyle;rounded=0;orthogonalLoop=1;jettySize=auto;html=1;entryX=0.5;entryY=0;entryDx=0;entryDy=0;strokeWidth=2;" parent="1" source="lGFxbz3i8dvHrvGvqf7d-36" target="lGFxbz3i8dvHrvGvqf7d-3" edge="1">
          <mxGeometry relative="1" as="geometry">
            <Array as="points">
              <mxPoint x="260" y="210" />
              <mxPoint x="180" y="210" />
            </Array>
          </mxGeometry>
        </mxCell>
        <UserObject label="Constraint" link="https://emdgroup.github.io/baybe/stable/userguide/constraints.html" linkTarget="_blank" id="lGFxbz3i8dvHrvGvqf7d-36">
          <mxCell style="swimlane;fontStyle=0;childLayout=stackLayout;horizontal=1;startSize=30;horizontalStack=0;resizeParent=1;resizeParentMax=0;resizeLast=0;collapsible=1;marginBottom=0;whiteSpace=wrap;html=1;fillColor=#f5f5f5;strokeColor=#666666;fontColor=#333333;" parent="1" vertex="1">
            <mxGeometry x="190" y="60" width="140" height="70" as="geometry" />
          </mxCell>
        </UserObject>
        <mxCell id="lGFxbz3i8dvHrvGvqf7d-37" value="Restrict parameter configurations" style="text;strokeColor=none;fillColor=default;align=center;verticalAlign=middle;spacingLeft=4;spacingRight=4;overflow=hidden;points=[[0,0.5],[1,0.5]];portConstraint=eastwest;rotatable=0;whiteSpace=wrap;html=1;" parent="lGFxbz3i8dvHrvGvqf7d-36" vertex="1">
          <mxGeometry y="30" width="140" height="40" as="geometry" />
        </mxCell>
        <UserObject label="Insights" link="https://emdgroup.github.io/baybe/stable/userguide/insights.html" linkTarget="_blank" id="lGFxbz3i8dvHrvGvqf7d-39">
          <mxCell style="swimlane;fontStyle=0;childLayout=stackLayout;horizontal=1;startSize=30;horizontalStack=0;resizeParent=1;resizeParentMax=0;resizeLast=0;collapsible=1;marginBottom=0;whiteSpace=wrap;html=1;fillColor=#eeeeee;strokeColor=#36393d;" parent="1" vertex="1">
            <mxGeometry x="360" y="690" width="140" height="70" as="geometry" />
          </mxCell>
        </UserObject>
        <mxCell id="lGFxbz3i8dvHrvGvqf7d-40" value="Analyze / understand experimental results" style="text;strokeColor=none;fillColor=default;align=center;verticalAlign=middle;spacingLeft=4;spacingRight=4;overflow=hidden;points=[[0,0.5],[1,0.5]];portConstraint=eastwest;rotatable=0;whiteSpace=wrap;html=1;" parent="lGFxbz3i8dvHrvGvqf7d-39" vertex="1">
          <mxGeometry y="30" width="140" height="40" as="geometry" />
        </mxCell>
        <mxCell id="lGFxbz3i8dvHrvGvqf7d-44" style="edgeStyle=orthogonalEdgeStyle;rounded=0;orthogonalLoop=1;jettySize=auto;html=1;strokeWidth=2;" parent="1" source="lGFxbz3i8dvHrvGvqf7d-42" target="lGFxbz3i8dvHrvGvqf7d-10" edge="1">
          <mxGeometry relative="1" as="geometry">
            <Array as="points">
              <mxPoint x="430" y="240" />
              <mxPoint x="430" y="240" />
            </Array>
          </mxGeometry>
        </mxCell>
        <UserObject label="Target" link="https://emdgroup.github.io/baybe/stable/userguide/targets.html" linkTarget="_blank" id="lGFxbz3i8dvHrvGvqf7d-42">
          <mxCell style="swimlane;fontStyle=0;childLayout=stackLayout;horizontal=1;startSize=30;horizontalStack=0;resizeParent=1;resizeParentMax=0;resizeLast=0;collapsible=1;marginBottom=0;whiteSpace=wrap;html=1;fillColor=#b1ddf0;strokeColor=#10739e;" parent="1" vertex="1">
            <mxGeometry x="360" y="160" width="140" height="70" as="geometry" />
          </mxCell>
        </UserObject>
        <mxCell id="lGFxbz3i8dvHrvGvqf7d-43" value="Individual targets to be optimized" style="text;strokeColor=none;fillColor=default;align=center;verticalAlign=middle;spacingLeft=4;spacingRight=4;overflow=hidden;points=[[0,0.5],[1,0.5]];portConstraint=eastwest;rotatable=0;whiteSpace=wrap;html=1;" parent="lGFxbz3i8dvHrvGvqf7d-42" vertex="1">
          <mxGeometry y="30" width="140" height="40" as="geometry" />
        </mxCell>
        <mxCell id="TgQTEoghcz0UxrAVnRUr-11" value="&lt;b&gt;&lt;font style=&quot;font-size: 14px;&quot;&gt;1. Configuration&lt;/font&gt;&lt;/b&gt;" style="text;html=1;align=left;verticalAlign=middle;whiteSpace=wrap;rounded=0;" parent="1" vertex="1">
          <mxGeometry x="30" y="20" width="122.5" height="30" as="geometry" />
        </mxCell>
        <mxCell id="TgQTEoghcz0UxrAVnRUr-12" value="&lt;b&gt;&lt;font style=&quot;font-size: 14px;&quot;&gt;2. Bayesian Optimization L&lt;/font&gt;&lt;/b&gt;&lt;b style=&quot;background-color: transparent; color: light-dark(rgb(0, 0, 0), rgb(255, 255, 255));&quot;&gt;&lt;font style=&quot;font-size: 14px;&quot;&gt;oop&lt;/font&gt;&lt;/b&gt;" style="text;html=1;align=left;verticalAlign=middle;whiteSpace=wrap;rounded=0;" parent="1" vertex="1">
          <mxGeometry x="30" y="390" width="230" height="30" as="geometry" />
        </mxCell>
        <mxCell id="TgQTEoghcz0UxrAVnRUr-13" value="&lt;b&gt;&lt;font style=&quot;font-size: 14px;&quot;&gt;3. Post-Analysis&lt;/font&gt;&lt;/b&gt;" style="text;html=1;align=left;verticalAlign=middle;whiteSpace=wrap;rounded=0;" parent="1" vertex="1">
          <mxGeometry x="30" y="660" width="140" height="30" as="geometry" />
        </mxCell>
        <mxCell id="2T1Zwf7EH5pKQzEgwhFY-1" style="edgeStyle=orthogonalEdgeStyle;rounded=0;orthogonalLoop=1;jettySize=auto;html=1;entryX=0;entryY=0.5;entryDx=0;entryDy=0;strokeWidth=2;" parent="1" source="lGFxbz3i8dvHrvGvqf7d-34" target="lGFxbz3i8dvHrvGvqf7d-37" edge="1">
          <mxGeometry relative="1" as="geometry">
            <Array as="points">
              <mxPoint x="180" y="110" />
              <mxPoint x="180" y="110" />
            </Array>
          </mxGeometry>
        </mxCell>
        <mxCell id="2T1Zwf7EH5pKQzEgwhFY-17" style="edgeStyle=orthogonalEdgeStyle;rounded=0;orthogonalLoop=1;jettySize=auto;html=1;entryX=0.5;entryY=0;entryDx=0;entryDy=0;strokeWidth=2;" parent="1" source="2T1Zwf7EH5pKQzEgwhFY-18" edge="1">
          <mxGeometry relative="1" as="geometry">
            <Array as="points">
              <mxPoint x="600" y="170" />
              <mxPoint x="680" y="170" />
            </Array>
            <mxPoint x="680" y="195" as="targetPoint" />
          </mxGeometry>
        </mxCell>
        <UserObject label="Surrogate" link="https://emdgroup.github.io/baybe/stable/userguide/surrogates.html" linkTarget="_blank" id="2T1Zwf7EH5pKQzEgwhFY-18">
          <mxCell style="swimlane;fontStyle=0;childLayout=stackLayout;horizontal=1;startSize=30;horizontalStack=0;resizeParent=1;resizeParentMax=0;resizeLast=0;collapsible=1;marginBottom=0;whiteSpace=wrap;html=1;fillColor=#f5f5f5;strokeColor=#666666;fontColor=#333333;" parent="1" vertex="1">
            <mxGeometry x="530" y="60" width="140" height="80" as="geometry" />
          </mxCell>
        </UserObject>
        <mxCell id="2T1Zwf7EH5pKQzEgwhFY-19" value="Model for learning from experiments" style="text;align=center;verticalAlign=middle;spacingLeft=4;spacingRight=4;overflow=hidden;points=[[0,0.5],[1,0.5]];portConstraint=eastwest;rotatable=0;whiteSpace=wrap;html=1;fillColor=default;" parent="2T1Zwf7EH5pKQzEgwhFY-18" vertex="1">
          <mxGeometry y="30" width="140" height="50" as="geometry" />
        </mxCell>
        <UserObject label="Acquisition Function" link="https://emdgroup.github.io/baybe/stable/examples/Basics/recommenders.html#acquisition-function" linkTarget="_blank" id="2T1Zwf7EH5pKQzEgwhFY-20">
          <mxCell style="swimlane;fontStyle=0;childLayout=stackLayout;horizontal=1;startSize=30;horizontalStack=0;resizeParent=1;resizeParentMax=0;resizeLast=0;collapsible=1;marginBottom=0;whiteSpace=wrap;html=1;fillColor=#f5f5f5;strokeColor=#666666;fontColor=#333333;" parent="1" vertex="1">
            <mxGeometry x="690" y="60" width="140" height="90" as="geometry" />
          </mxCell>
        </UserObject>
        <mxCell id="2T1Zwf7EH5pKQzEgwhFY-21" value="Strategy for balancing exploration and exploitation" style="text;strokeColor=none;fillColor=default;align=center;verticalAlign=middle;spacingLeft=4;spacingRight=4;overflow=hidden;points=[[0,0.5],[1,0.5]];portConstraint=eastwest;rotatable=0;whiteSpace=wrap;html=1;" parent="2T1Zwf7EH5pKQzEgwhFY-20" vertex="1">
          <mxGeometry y="30" width="140" height="60" as="geometry" />
        </mxCell>
        <mxCell id="2T1Zwf7EH5pKQzEgwhFY-22" style="edgeStyle=orthogonalEdgeStyle;rounded=0;orthogonalLoop=1;jettySize=auto;html=1;entryX=0.5;entryY=0;entryDx=0;entryDy=0;strokeWidth=2;exitX=0.5;exitY=1;exitDx=0;exitDy=0;" parent="1" source="2T1Zwf7EH5pKQzEgwhFY-20" edge="1">
          <mxGeometry relative="1" as="geometry">
            <mxPoint x="630" y="140" as="sourcePoint" />
            <mxPoint x="680" y="195" as="targetPoint" />
            <Array as="points">
              <mxPoint x="760" y="170" />
              <mxPoint x="680" y="170" />
            </Array>
          </mxGeometry>
        </mxCell>
        <mxCell id="2T1Zwf7EH5pKQzEgwhFY-23" value="Optional" style="rounded=1;whiteSpace=wrap;html=1;fillColor=#eeeeee;strokeColor=#36393d;" parent="1" vertex="1">
          <mxGeometry x="900" y="213" width="130" height="35" as="geometry" />
        </mxCell>
        <mxCell id="2T1Zwf7EH5pKQzEgwhFY-24" value="To be configured" style="rounded=1;whiteSpace=wrap;html=1;fillColor=#b1ddf0;strokeColor=#10739e;" parent="1" vertex="1">
          <mxGeometry x="900" y="126" width="130" height="35" as="geometry" />
        </mxCell>
        <mxCell id="2T1Zwf7EH5pKQzEgwhFY-25" value="Legend" style="text;html=1;align=center;verticalAlign=middle;whiteSpace=wrap;rounded=0;" parent="1" vertex="1">
          <mxGeometry x="935" y="85" width="60" height="30" as="geometry" />
        </mxCell>
        <mxCell id="2T1Zwf7EH5pKQzEgwhFY-30" value="&lt;span style=&quot;font-weight: normal;&quot;&gt;Input/output data&lt;/span&gt;" style="rounded=1;whiteSpace=wrap;html=1;fillColor=#fff2cc;strokeColor=#d6b656;fontStyle=1" parent="1" vertex="1">
          <mxGeometry x="900" y="171" width="130" height="35" as="geometry" />
        </mxCell>
      </root>
    </mxGraphModel>
  </diagram>
</mxfile>
